<svg id="visual" viewBox="0 0 1500 200" width="1500" height="200" xmlns="http://www.w3.org/2000/svg" xmlns:xlink="http://www.w3.org/1999/xlink" version="1.1"><rect x="0" y="0" width="1500" height="200" fill="#365966"></rect><path d="M0 169L8 162.7C16 156.3 32 143.7 48.2 131.2C64.3 118.7 80.7 106.3 96.8 114.3C113 122.3 129 150.7 145.2 164.3C161.3 178 177.7 177 193.8 163.7C210 150.3 226 124.7 242 125.7C258 126.7 274 154.3 290.2 161.8C306.3 169.3 322.7 156.7 338.8 149.7C355 142.7 371 141.3 387 141.5C403 141.7 419 143.3 435.2 144.7C451.3 146 467.7 147 483.8 139.7C500 132.3 516 116.7 532.2 116C548.3 115.3 564.7 129.7 580.8 141.7C597 153.7 613 163.3 629 159.2C645 155 661 137 677.2 137.2C693.3 137.3 709.7 155.7 725.8 161.2C742 166.7 758 159.3 774.2 161.8C790.3 164.3 806.7 176.7 822.8 177.3C839 178 855 167 871 157.8C887 148.7 903 141.3 919.2 129.8C935.3 118.3 951.7 102.7 967.8 98.5C984 94.3 1000 101.7 1016.2 109C1032.3 116.3 1048.7 123.7 1064.8 131.5C1081 139.3 1097 147.7 1113 144.2C1129 140.7 1145 125.3 1161.2 114.2C1177.3 103 1193.7 96 1209.8 109.8C1226 123.7 1242 158.3 1258 163.5C1274 168.7 1290 144.3 1306.2 142.5C1322.3 140.7 1338.7 161.3 1354.8 163.2C1371 165 1387 148 1403.2 142C1419.3 136 1435.7 141 1451.8 148.2C1468 155.3 1484 164.7 1492 169.3L1500 174L1500 201L1492 201C1484 201 1468 201 1451.8 201C1435.7 201 1419.3 201 1403.2 201C1387 201 1371 201 1354.8 201C1338.7 201 1322.3 201 1306.2 201C1290 201 1274 201 1258 201C1242 201 1226 201 1209.8 201C1193.7 201 1177.3 201 1161.2 201C1145 201 1129 201 1113 201C1097 201 1081 201 1064.8 201C1048.7 201 1032.3 201 1016.2 201C1000 201 984 201 967.8 201C951.7 201 935.3 201 919.2 201C903 201 887 201 871 201C855 201 839 201 822.8 201C806.7 201 790.3 201 774.2 201C758 201 742 201 725.8 201C709.7 201 693.3 201 677.2 201C661 201 645 201 629 201C613 201 597 201 580.8 201C564.7 201 548.3 201 532.2 201C516 201 500 201 483.8 201C467.7 201 451.3 201 435.2 201C419 201 403 201 387 201C371 201 355 201 338.8 201C322.7 201 306.3 201 290.2 201C274 201 258 201 242 201C226 201 210 201 193.8 201C177.7 201 161.3 201 145.2 201C129 201 113 201 96.8 201C80.7 201 64.3 201 48.2 201C32 201 16 201 8 201L0 201Z" fill="#e4ebed" stroke-linecap="round" stroke-linejoin="miter"></path></svg>